<svg id="Layer_1" data-name="Layer 1" xmlns="http://www.w3.org/2000/svg" viewBox="0 0 692.67 114.11"><defs><style>.cls-1{fill:#27397d;}.cls-2{fill:#f7981d;}</style></defs><title>Edugate</title><path class="cls-1" d="M100.14,124.21V16.93c16.45.77,32.92-.22,48.66,2.69,22.78,4.21,36.41,23.29,38.93,44.31,3.5,29-14.73,56-43.53,59.94-14.29,1.95-29.07.34-44.06.34m11.63-98.46V116.1c11.31-.65,22.51-.06,33.16-2.19C164,110.1,176.75,92.56,177.11,72c.38-21.27-10.89-38.38-30.42-43-10.92-2.6-22.56-2.18-34.92-3.21" transform="translate(-14.33 -12.32)"/><path class="cls-1" d="M351.15,80.93V72H390c.15,1.57.43,3.16.44,4.74.05,6.94-.67,14,.2,20.79,1.21,9.59-3.47,15.33-10.88,19.64-28.8,16.75-68.31,11.34-84.9-20.06-18.29-34.61,4.37-76.8,43.33-80.73,21.57-2.17,40.65,6.31,51.77,23.34l-7.83,5.45c-3-3.15-5.56-6.34-8.59-9-25-22.15-64.82-8.85-72.41,24.14C293.47,93.54,320,122,353.64,115.92c7.49-1.35,14.7-4.9,21.65-8.26,2-1,3.42-4.69,3.76-7.32.6-4.61-.05-9.37.24-14,.26-4.1-1-5.67-5.34-5.48-7.45.34-14.91.1-22.8.1" transform="translate(-14.33 -12.32)"/><path class="cls-1" d="M398.89,124.21l48-111.89,47.95,112.45c-3.13,0-5.54-.19-7.9,0-3.33.33-4.81-1-6.11-4.16-10.59-25.71-21.43-51.31-32.2-76.94-.42-1-.92-2-1.81-3.91-4.8,11.26-9.3,21.75-13.74,32.26Q423.87,94,414.68,115.92c-4.17,9.91-4.17,9.91-15.79,8.29" transform="translate(-14.33 -12.32)"/><polygon class="cls-1" points="509.53 14.26 480.7 14.26 480.7 5.75 548.62 5.75 548.62 14.29 520.28 14.29 520.28 112.11 509.53 112.11 509.53 14.26"/><path class="cls-1" d="M235,117.34v8.29c-19.31.67-35.55-12.28-36.26-30.8-1-25.4-.24-50.86-.24-76.74h10.37v5.68c0,19.86.26,39.71-.07,59.56-.31,19,5.59,29.32,24.79,33.32a6.15,6.15,0,0,1,1.41.69" transform="translate(-14.33 -12.32)"/><path class="cls-1" d="M266.72,18.17a18.87,18.87,0,0,1,2.67-.49c2.42-.05,4.85,0,7.78,0,.13,1.81.35,3.42.35,5,0,22.69.09,45.37,0,68.06-.09,20.58-14.7,34.85-35.87,34.94v-8.64c2.46-.73,5.14-1.38,7.7-2.33,10.11-3.77,16.89-10.25,17-21.8q.27-34.29.41-68.59c0-2,0-4.06,0-6.16" transform="translate(-14.33 -12.32)"/><path class="cls-1" d="M15.05,65.23H77.9v9.09c-1.93.1-3.9.29-5.86.29q-25,0-50,0c-8.43,0-8.43,0-7-9.4" transform="translate(-14.33 -12.32)"/><rect class="cls-1" x="567.03" y="52.95" width="62.64" height="8.89"/><rect class="cls-1" x="0.36" y="103.58" width="65.59" height="8.48"/><rect class="cls-1" x="0.36" y="5.67" width="65.54" height="8.34"/><path class="cls-1" d="M581.14,124.37c-.17-2.78-.33-5.35-.52-8.38h65.73v8.38Z" transform="translate(-14.33 -12.32)"/><rect class="cls-1" x="567.23" y="5.66" width="64.96" height="8.35"/><path class="cls-2" d="M679.92,53.87,707,72.3,679.92,90.7Z" transform="translate(-14.33 -12.32)"/></svg>